HIERARCHY
ROOT hip
{
  OFFSET 0 0 0
  CHANNELS 6 Xposition Yposition Zposition Zrotation Yrotation Xrotation
  JOINT abdomen
  {
    OFFSET 0 20.6881 -0.73152
    CHANNELS 3 Zrotation Xrotation Yrotation
    JOINT chest
    {
      OFFSET 0 11.7043 -0.48768
      CHANNELS 3 Zrotation Xrotation Yrotation
      JOINT neck
      {
        OFFSET 0 22.1894 -2.19456
        CHANNELS 3 Zrotation Xrotation Yrotation
        JOINT head
        {
          OFFSET -0.24384 7.07133 1.2192
          CHANNELS 3 Zrotation Xrotation Yrotation
          JOINT leftEye
          {
            OFFSET 4.14528 8.04674 8.04672
            CHANNELS 3 Zrotation Xrotation Yrotation
            End Site
            {
              OFFSET 1 0 0
            }
          }
          JOINT rightEye
          {
            OFFSET -3.6576 8.04674 8.04672
            CHANNELS 3 Zrotation Xrotation Yrotation
            End Site
            {
              OFFSET 1 0 0
            }
          }
        }
      }
      JOINT rCollar
      {
        OFFSET -2.68224 19.2634 -4.8768
        CHANNELS 3 Zrotation Xrotation Yrotation
        JOINT rShldr
        {
          OFFSET -8.77824 -1.95073 1.46304
          CHANNELS 3 Zrotation Xrotation Yrotation
          JOINT rForeArm
          {
            OFFSET -28.1742 -1.7115 0.48768
            CHANNELS 3 Zrotation Xrotation Yrotation
            JOINT rHand
            {
              OFFSET -22.5879 0.773209 7.07136
              CHANNELS 3 Zrotation Xrotation Yrotation
              JOINT rThumb1
              {
                OFFSET -1.2192 -0.487915 3.41376
                CHANNELS 3 Zrotation Xrotation Yrotation
                JOINT rThumb2
                {
                  OFFSET -3.37035 -0.52449 3.41376
                  CHANNELS 3 Zrotation Xrotation Yrotation
                  End Site
                  {
                    OFFSET -1.78271 -1.18214 1.43049
                  }
                }
              }
              JOINT rIndex1
              {
                OFFSET -7.75947 0.938293 5.60832
                CHANNELS 3 Zrotation Xrotation Yrotation
                JOINT rIndex2
                {
                  OFFSET -2.54057 -0.884171 1.56538
                  CHANNELS 3 Zrotation Xrotation Yrotation
                  End Site
                  {
                    OFFSET -1.62519 -0.234802 1.16502
                  }
                }
              }
              JOINT rMid1
              {
                OFFSET -8.24714 1.18213 3.41376
                CHANNELS 3 Zrotation Xrotation Yrotation
                JOINT rMid2
                {
                  OFFSET -3.10165 -0.590103 1.0647
                  CHANNELS 3 Zrotation Xrotation Yrotation
                  End Site
                  {
                    OFFSET -2.48547 -0.328903 0.83742
                  }
                }
              }
              JOINT rRing1
              {
                OFFSET -8.82822 0.546677 1.51678
                CHANNELS 3 Zrotation Xrotation Yrotation
                JOINT rRing2
                {
                  OFFSET -2.60934 -0.819778 -0.0198488
                  CHANNELS 3 Zrotation Xrotation Yrotation
                  End Site
                  {
                    OFFSET -2.33842 -0.294052 0.168128
                  }
                }
              }
              JOINT rPinky1
              {
                OFFSET -8.27202 -0.0477905 -0.4584
                CHANNELS 3 Zrotation Xrotation Yrotation
                JOINT rPinky2
                {
                  OFFSET -1.82734 -0.647385 -0.700984
                  CHANNELS 3 Zrotation Xrotation Yrotation
                  End Site
                  {
                    OFFSET -1.69225 -0.51767 -0.607171
                  }
                }
              }
            }
          }
        }
      }
      JOINT lCollar
      {
        OFFSET 2.68224 19.2634 -4.8768
        CHANNELS 3 Zrotation Xrotation Yrotation
        JOINT lShldr
        {
          OFFSET 8.77824 -1.95073 1.46304
          CHANNELS 3 Zrotation Xrotation Yrotation
          JOINT lForeArm
          {
            OFFSET 28.1742 -1.7115 0.48768
            CHANNELS 3 Zrotation Xrotation Yrotation
            JOINT lHand
            {
              OFFSET 22.5879 0.773209 7.07136
              CHANNELS 3 Zrotation Xrotation Yrotation
              JOINT lThumb1
              {
                OFFSET 1.2192 -0.487915 3.41376
                CHANNELS 3 Zrotation Xrotation Yrotation
                JOINT lThumb2
                {
                  OFFSET 3.37035 -0.52449 3.41376
                  CHANNELS 3 Zrotation Xrotation Yrotation
                  End Site
                  {
                    OFFSET 1.78271 -1.18214 1.43049
                  }
                }
              }
              JOINT lIndex1
              {
                OFFSET 7.75947 0.938293 5.60832
                CHANNELS 3 Zrotation Xrotation Yrotation
                JOINT lIndex2
                {
                  OFFSET 2.54057 -0.884171 1.56538
                  CHANNELS 3 Zrotation Xrotation Yrotation
                  End Site
                  {
                    OFFSET 1.62519 -0.234802 1.16502
                  }
                }
              }
              JOINT lMid1
              {
                OFFSET 8.24714 1.18213 3.41376
                CHANNELS 3 Zrotation Xrotation Yrotation
                JOINT lMid2
                {
                  OFFSET 3.10165 -0.590103 1.0647
                  CHANNELS 3 Zrotation Xrotation Yrotation
                  End Site
                  {
                    OFFSET 2.48547 -0.328903 0.83742
                  }
                }
              }
              JOINT lRing1
              {
                OFFSET 8.82822 0.546677 1.51678
                CHANNELS 3 Zrotation Xrotation Yrotation
                JOINT lRing2
                {
                  OFFSET 2.60934 -0.819778 -0.0198488
                  CHANNELS 3 Zrotation Xrotation Yrotation
                  End Site
                  {
                    OFFSET 2.33842 -0.294052 0.168128
                  }
                }
              }
              JOINT lPinky1
              {
                OFFSET 8.27202 -0.0477905 -0.4584
                CHANNELS 3 Zrotation Xrotation Yrotation
                JOINT lPinky2
                {
                  OFFSET 1.82734 -0.647385 -0.700984
                  CHANNELS 3 Zrotation Xrotation Yrotation
                  End Site
                  {
                    OFFSET 1.69225 -0.51767 -0.607171
                  }
                }
              }
            }
          }
        }
      }
    }
  }
  JOINT rButtock
  {
    OFFSET -8.77824 4.35084 1.2192
    CHANNELS 3 Zrotation Xrotation Yrotation
    JOINT rThigh
    {
      OFFSET 0 -1.70687 -2.19456
      CHANNELS 3 Zrotation Xrotation Yrotation
      JOINT rShin
      {
        OFFSET 0 -36.8199 0.73152
        CHANNELS 3 Zrotation Xrotation Yrotation
        JOINT rFoot
        {
          OFFSET 0.73152 -45.1104 -5.12064
          CHANNELS 3 Zrotation Xrotation Yrotation
          End Site
          {
            OFFSET -1.1221 -3.69964 12.103
          }
        }
      }
    }
  }
  JOINT lButtock
  {
    OFFSET 8.77824 4.35084 1.2192
    CHANNELS 3 Zrotation Xrotation Yrotation
    JOINT lThigh
    {
      OFFSET 0 -1.70687 -2.19456
      CHANNELS 3 Zrotation Xrotation Yrotation
      JOINT lShin
      {
        OFFSET 0 -36.8199 0.73152
        CHANNELS 3 Zrotation Xrotation Yrotation
        JOINT lFoot
        {
          OFFSET -0.73152 -45.1104 -5.12064
          CHANNELS 3 Zrotation Xrotation Yrotation
          End Site
          {
            OFFSET 1.1221 -3.69964 12.103
          }
        }
      }
    }
  }
}
MOTION
Frames:	6
Frame Time:	0.00833333
50.6621 55.3676 39.7898 -178.961 -3.2502 2.9728 -4.231 50.6393 2.99631 -2.36415 5.42151 -1.78526 -1.36603 5.88397 -2.12621 -3.42105 10.1066 -1.8789 -0.0 0.0 0.0 -0.0 0.0 0.0 -4.75282e-14 1.27223e-13 2.93207e-14 64.7087 -26.0647 93.5229 -26.0572 -46.1612 95.8898 -0.39585 17.6046 2.55594 -5.1803e-10 1.17323e-09 1.21867e-09 -8.74618e-10 2.03464e-09 2.11003e-09 -5.18021e-10 1.17323e-09 1.21865e-09 7.73091 5.47488 0.417314 -5.18027e-10 1.17324e-09 1.21867e-09 2.90554 0.965183 0.102902 -5.18012e-10 1.17323e-09 1.21866e-09 10.2786 0.731801 0.0259123 -5.18036e-10 1.17324e-09 1.21867e-09 2.22167 -0.733487 -0.20892 -4.76927e-14 1.2722e-13 2.90226e-14 -55.213 -34.9545 -95.4487 26.8598 -44.3808 -92.2045 0.210151 12.9484 -1.85173 8.35401e-10 2.55313e-10 -8.54065e-10 1.43103e-09 4.473e-10 -1.48152e-09 8.35392e-10 2.55314e-10 -8.54055e-10 -7.73091 5.47488 -0.417314 8.354e-10 2.55311e-10 -8.54065e-10 -2.90554 0.965183 -0.102902 8.35389e-10 2.5531e-10 -8.5406e-10 -10.2786 0.731801 -0.0259123 8.35404e-10 2.55309e-10 -8.54065e-10 -2.22167 -0.733487 0.20892 -2.03217e-16 0.0 -3.88251e-19 -75.2202 -54.8099 -9.46264 0.0339547 6.87508 0.399659 -28.4871 -32.4937 -43.7266 2.03217e-16 0.0 3.88251e-19 80.9211 -45.2281 26.9449 0.00108934 7.84329 -0.20148 1.25621 -30.7967 0.638352
50.6338 54.0716 37.7136 -179.035 -3.7035 5.0666 -4.64449 50.761 3.37931 -2.3128 5.49611 -1.97274 -1.52942 5.31887 -2.04965 -3.21034 9.63208 -1.76039 -0.0 0.0 0.0 -0.0 0.0 0.0 -3.16853e-14 1.46554e-13 1.41044e-14 65.2175 -26.0914 94.6241 -26.1293 -46.0176 95.5851 -0.396208 17.6042 2.55598 -4.84613e-10 1.22919e-09 1.20858e-09 -8.17672e-10 2.1325e-09 2.09227e-09 -4.84605e-10 1.2292e-09 1.20857e-09 7.73091 5.47488 0.417314 -4.84611e-10 1.2292e-09 1.20858e-09 2.90554 0.965183 0.102902 -4.84598e-10 1.2292e-09 1.20857e-09 10.2786 0.731801 0.0259123 -4.84618e-10 1.2292e-09 1.20858e-09 2.22167 -0.733487 -0.20892 -3.18599e-14 1.46552e-13 1.38307e-14 -56.0597 -35.6082 -96.5439 26.9092 -44.2562 -91.9523 0.216133 13.1263 -1.87809 7.83201e-10 3.10624e-10 -8.94374e-10 1.34094e-09 5.43803e-10 -1.55125e-09 7.83192e-10 3.10624e-10 -8.94366e-10 -7.73091 5.47488 -0.417314 7.832e-10 3.10623e-10 -8.94371e-10 -2.90554 0.965183 -0.102902 7.8319e-10 3.10622e-10 -8.9437e-10 -10.2786 0.731801 -0.0259123 7.83204e-10 3.10621e-10 -8.94374e-10 -2.22167 -0.733487 0.20892 -2.03217e-16 0.0 -3.88251e-19 -75.8867 -55.1121 -11.1751 0.028912 7.67869 0.384349 -26.3563 -30.8753 -42.2943 2.03217e-16 0.0 3.88251e-19 81.6203 -44.7589 28.9594 0.00616048 9.03643 -0.198814 1.53504 -29.0307 1.10474
50.6283 52.734 35.6607 -179.083 -4.2371 7.3727 -5.09037 50.8529 3.78123 -2.25241 5.57529 -2.24675 -1.80368 4.77157 -1.99785 -2.86424 9.10159 -1.69225 -0.0 0.0 0.0 -0.0 0.0 0.0 -2.27941e-15 1.66581e-13 -8.31168e-15 65.8151 -26.0351 95.7424 -26.1977 -45.8797 95.2925 -0.394017 17.545 2.54698 -4.34329e-10 1.28101e-09 1.18594e-09 -7.31976e-10 2.22347e-09 2.05263e-09 -4.34321e-10 1.28101e-09 1.18593e-09 7.73091 5.47488 0.417314 -4.34329e-10 1.28101e-09 1.18594e-09 2.90554 0.965183 0.102902 -4.34316e-10 1.28101e-09 1.18593e-09 10.2786 0.731801 0.0259123 -4.34333e-10 1.28101e-09 1.18594e-09 2.22167 -0.733487 -0.20892 -2.46984e-15 1.6658e-13 -8.53842e-15 -56.9107 -36.3439 -97.628 26.963 -44.117 -91.6727 0.223393 13.3366 -1.90932 6.86711e-10 3.8508e-10 -9.29469e-10 1.17447e-09 6.7349e-10 -1.61164e-09 6.86702e-10 3.85078e-10 -9.29464e-10 -7.73091 5.47488 -0.417314 6.8671e-10 3.8508e-10 -9.29464e-10 -2.90554 0.965183 -0.102902 6.86702e-10 3.85078e-10 -9.29467e-10 -10.2786 0.731801 -0.0259123 6.86716e-10 3.85078e-10 -9.29473e-10 -2.22167 -0.733487 0.20892 -2.03217e-16 0.0 -3.88251e-19 -76.4585 -55.2627 -12.6921 0.0246596 8.30708 0.372714 -24.298 -29.6104 -40.5877 2.03217e-16 0.0 3.88251e-19 82.2476 -44.2679 30.9169 0.0114968 10.2576 -0.195301 1.84278 -27.2814 1.68702
50.6125 51.3214 33.6323 -179.232 -4.4464 9.7724 -5.45494 50.9411 4.0277 -2.23145 5.60542 -2.37363 -2.0828 4.09196 -1.96846 -2.43786 8.64591 -1.68087 -0.0 0.0 0.0 -0.0 0.0 0.0 2.64018e-14 1.66133e-13 -2.99885e-14 66.3552 -26.0563 96.7925 -26.2477 -45.7772 95.0759 -0.385689 17.3643 2.51906 -3.33484e-10 1.23504e-09 1.06847e-09 -5.60324e-10 2.14422e-09 1.84875e-09 -3.33475e-10 1.23504e-09 1.06846e-09 7.73091 5.47488 0.417314 -3.33485e-10 1.23504e-09 1.06847e-09 2.90554 0.965183 0.102902 -3.33474e-10 1.23504e-09 1.06847e-09 10.2786 0.731801 0.0259123 -3.33485e-10 1.23504e-09 1.06847e-09 2.22167 -0.733487 -0.20892 2.61928e-14 1.66134e-13 -3.01667e-14 -57.6903 -36.9622 -98.7119 27.0106 -43.9894 -91.4202 0.228301 13.477 -1.93021 5.22115e-10 4.39377e-10 -8.86447e-10 8.91348e-10 7.67293e-10 -1.53653e-09 5.22107e-10 4.39373e-10 -8.86444e-10 -7.73091 5.47488 -0.417314 5.22114e-10 4.39376e-10 -8.86439e-10 -2.90554 0.965183 -0.102902 5.22109e-10 4.39374e-10 -8.86447e-10 -10.2786 0.731801 -0.0259123 5.22121e-10 4.39374e-10 -8.86454e-10 -2.22167 -0.733487 0.20892 -2.03217e-16 0.0 -3.88251e-19 -77.0327 -55.3467 -14.2987 0.0206031 8.93201 0.363307 -22.2549 -28.3858 -38.7413 2.03217e-16 0.0 3.88251e-19 82.8915 -43.8308 32.8921 0.0175394 11.5278 -0.191938 2.11824 -25.5681 2.27259
50.6142 49.8229 31.6205 -179.541 -4.5994 12.0109 -5.62348 51.0527 3.94358 -2.29886 5.53302 -2.11967 -2.26057 3.12987 -1.95942 -1.98638 8.39583 -1.7325 -0.0 0.0 0.0 -0.0 0.0 0.0 4.00707e-14 1.2404e-13 -4.29872e-14 66.7037 -26.3275 97.7124 -26.2656 -45.7406 94.9982 -0.368082 16.9997 2.46257 -1.48382e-10 9.97648e-10 7.73889e-10 -2.4551e-10 1.73147e-09 1.33827e-09 -1.48374e-10 9.97649e-10 7.73886e-10 7.73091 5.47488 0.417314 -1.48384e-10 9.9765e-10 7.73889e-10 2.90554 0.965183 0.102902 -1.48375e-10 9.9765e-10 7.73893e-10 10.2786 0.731801 0.0259123 -1.48383e-10 9.97653e-10 7.73899e-10 2.22167 -0.733487 -0.20892 3.98433e-14 1.24042e-13 -4.31363e-14 -58.3064 -37.262 -99.784 27.0426 -43.9006 -91.247 0.226975 13.4451 -1.92542 2.65597e-10 4.34206e-10 -6.92404e-10 4.51311e-10 7.56142e-10 -1.19975e-09 2.65589e-10 4.34206e-10 -6.924e-10 -7.73091 5.47488 -0.417314 2.65596e-10 4.34205e-10 -6.92394e-10 -2.90554 0.965183 -0.102902 2.65593e-10 4.34203e-10 -6.92405e-10 -10.2786 0.731801 -0.0259123 2.65604e-10 4.34203e-10 -6.92413e-10 -2.22167 -0.733487 0.20892 -2.03217e-16 0.0 -3.88251e-19 -77.7273 -55.4314 -16.2958 0.0163482 9.72523 0.354708 -20.1892 -26.9011 -36.9275 2.03217e-16 0.0 3.88251e-19 83.6523 -43.5141 34.9652 0.0248149 12.8682 -0.189746 2.31593 -23.9114 2.75591
50.5778 48.2856 29.6667 -179.713 -4.5578 14.3119 -5.41104 51.2261 3.14964 -2.57721 5.42107 -1.13534 -2.37573 1.50654 -2.01463 -1.30199 8.83671 -1.90532 -0.0 0.0 0.0 -0.0 0.0 0.0 2.90213e-14 -2.94385e-16 -4.41081e-14 67.0177 -26.9941 98.6862 -26.241 -45.792 95.1057 -0.340373 16.3937 2.36934 2.37877e-10 3.81189e-10 9.5652e-11 4.11586e-10 6.58012e-10 1.63392e-10 2.37885e-10 3.81189e-10 9.56483e-11 7.73091 5.47488 0.417314 2.37878e-10 3.8119e-10 9.56534e-11 2.90554 0.965183 0.102902 2.37884e-10 3.8119e-10 9.56556e-11 10.2786 0.731801 0.0259123 2.37875e-10 3.81192e-10 9.56615e-11 2.22167 -0.733487 -0.20892 2.87668e-14 -2.91495e-16 -4.42568e-14 -58.8828 -37.0836 -101.109 27.0662 -43.8289 -91.1138 0.225497 13.3338 -1.90927 -2.12019e-10 3.34e-10 -1.8406e-10 -3.66779e-10 5.76374e-10 -3.1829e-10 -2.12027e-10 3.34012e-10 -1.84054e-10 -7.73091 5.47488 -0.417314 -2.12019e-10 3.34e-10 -1.8405e-10 -2.90554 0.965183 -0.102902 -2.12025e-10 3.33999e-10 -1.84061e-10 -10.2786 0.731801 -0.0259123 -2.12014e-10 3.33999e-10 -1.84069e-10 -2.22167 -0.733487 0.20892 -2.03217e-16 0.0 -3.88251e-19 -78.3635 -55.4581 -18.6199 0.012259 10.6505 0.346434 -18.1573 -25.1377 -35.2337 2.03217e-16 0.0 3.88251e-19 84.6677 -43.3083 37.1664 0.0329275 14.2666 -0.188733 2.45395 -22.3319 3.15271
